<?xml version="1.0" encoding="UTF-8" standalone="no"?>
<!-- Created with Inkscape (http://www.inkscape.org/) -->

<svg
   xmlns:dc="http://purl.org/dc/elements/1.1/"
   xmlns:cc="http://creativecommons.org/ns#"
   xmlns:rdf="http://www.w3.org/1999/02/22-rdf-syntax-ns#"
   xmlns:svg="http://www.w3.org/2000/svg"
   xmlns="http://www.w3.org/2000/svg"
   xmlns:sodipodi="http://sodipodi.sourceforge.net/DTD/sodipodi-0.dtd"
   xmlns:inkscape="http://www.inkscape.org/namespaces/inkscape"
   width="49.218384"
   height="50"
   viewBox="0 0 13.022364 13.229167"
   version="1.1"
   id="svg1100"
   inkscape:version="0.92.2 2405546, 2018-03-11"
   sodipodi:docname="ch-logo.svg">
  <defs
     id="defs1094" />
  <sodipodi:namedview
     id="base"
     pagecolor="#ffffff"
     bordercolor="#666666"
     borderopacity="1.0"
     inkscape:pageopacity="0.0"
     inkscape:pageshadow="2"
     inkscape:zoom="5.6"
     inkscape:cx="-53.952789"
     inkscape:cy="48.236091"
     inkscape:document-units="px"
     inkscape:current-layer="layer1"
     showgrid="false"
     fit-margin-top="0"
     fit-margin-left="0"
     fit-margin-right="0"
     fit-margin-bottom="0"
     units="px"
     inkscape:window-width="1920"
     inkscape:window-height="1053"
     inkscape:window-x="0"
     inkscape:window-y="27"
     inkscape:window-maximized="1" />
  <metadata
     id="metadata1097">
    <rdf:RDF>
      <cc:Work
         rdf:about="">
        <dc:format>image/svg+xml</dc:format>
        <dc:type
           rdf:resource="http://purl.org/dc/dcmitype/StillImage" />
        <dc:title></dc:title>
      </cc:Work>
    </rdf:RDF>
  </metadata>
  <g
     inkscape:label="Layer 1"
     inkscape:groupmode="layer"
     id="layer1"
     transform="translate(-84.473375,-117.82574)">
    <g
       id="g2261"
       transform="matrix(0.60419507,0,0,0.60419507,33.434978,51.872178)">
      <g
         id="g1079"
         transform="translate(-142.07331,-130.429)">
        <g
           id="g1073">
          <path
             id="path4631"
             transform="matrix(0.26458333,0,0,0.26458333,0,138.24997)"
             d="m 893.45312,383.01172 c -1.36678,0.0686 -7.52898,5.59712 -10.3457,9.38867 -1.31288,1.76729 -2.24633,3.38075 -2.86719,4.93164 l 2.51758,0.002 v 12.89649 c 0.56875,-0.48563 1.10474,-1.12122 1.70508,-1.46289 v 0.008 c 1.23084,-0.7093 2.48362,-1.09961 3.72852,-1.09961 1.54594,0 2.92746,0.5905 3.77929,1.73438 0.85172,1.14383 1.1875,2.6922 1.1875,4.59179 v 22.88867 c 3.32938,7.0793 4.23533,9.61811 4.64649,12.50196 0.38857,2.72576 -0.17164,6.54615 -1.70703,11.63672 -0.61932,2.05319 -1.125,3.95601 -1.125,4.22851 0,3.21362 12.54752,-9.62076 15.63672,-15.99414 0.52044,-1.07369 1.02509,-2.40707 1.12109,-2.96289 0.27195,-1.57661 -0.31234,-4.61852 -1.54492,-8.42383 -0.18507,0.2372 -0.38257,0.46574 -0.59571,0.68164 -1.65962,1.68118 -3.9841,2.50196 -6.72656,2.50196 -2.66052,0 -4.93839,-0.8585 -6.60547,-2.56836 -1.66722,-1.73137 -2.49609,-4.08383 -2.49609,-6.84375 v -15.66406 c 0,-2.55716 0.88034,-4.75733 2.59961,-6.32618 0.28323,-0.26139 0.58725,-0.49363 0.90234,-0.71093 -2.48319,-5.28233 -3.57641,-8.04983 -3.98437,-10.16797 -0.41004,-2.1275 -0.30961,-8.48277 0.1914,-12.15235 0.27969,-2.04907 0.35122,-3.3933 0.18946,-3.55468 -0.0461,-0.0461 -0.11592,-0.0651 -0.20704,-0.0605 z m 27.08594,8.75 c -0.9532,-0.0186 -5.07435,3.49717 -7.35351,6.3457 -3.37641,4.22 -4.31447,6.71458 -3.79297,10.08399 0.0949,0.61335 0.23069,1.25577 0.39062,1.92187 0.60091,0.8284 0.65621,1.96471 1.03125,2.9336 l -0.70898,-3.79493 -0.2207,-1.18164 h 7.4414 l 2.08008,13.28125 2.07422,-13.28125 h 0.11523 c -0.14812,-0.33803 -0.50237,-1.10024 -0.55859,-1.24804 -0.81014,-2.12958 -1.05178,-7.24372 -0.55273,-11.73047 0.19313,-1.72249 0.28205,-3.19722 0.20117,-3.27735 -0.0339,-0.0339 -0.0829,-0.0515 -0.14649,-0.0527 z m -53.20117,0.0664 c -1.26196,0.0456 -6.71387,5.22715 -8.89258,8.5625 -1.96206,3.00428 -2.50225,5.07176 -2.0625,7.9004 0.18564,1.19403 0.49987,2.47663 0.97071,3.96484 0.41861,-0.88978 0.97348,-1.69709 1.68359,-2.39844 1.72169,-1.70045 4.03307,-2.55469 6.71094,-2.55469 0.9277,2e-5 1.8081,0.10829 2.63281,0.32227 -0.79603,-2.03835 -1.00636,-3.19165 -1.19531,-4.89844 -0.26208,-2.36628 -0.23672,-3.47901 0.15234,-6.70117 0.30501,-2.5248 0.37138,-3.95908 0.19336,-4.13672 -0.0447,-0.0447 -0.10923,-0.0636 -0.19336,-0.0605 z m 12.26172,7.50196 c -0.30135,1.34967 -0.34978,2.67578 -0.1582,4.03515 0.24497,1.7385 0.66599,3.53563 1.31445,5.60743 v -9.64258 z m -13.85156,9.97265 c -2.27074,0 -3.96846,0.65689 -5.30664,1.97852 -1.11675,1.10297 -1.75292,2.46189 -1.9336,4.20117 0.8218,2.09986 1.99758,4.77562 3.48438,8.00196 0.40489,0.35455 0.84433,0.71408 1.32812,1.07812 0.0828,0.0582 0.16326,0.12653 0.24414,0.20703 1.87506,1.42919 3.34276,2.71464 4.34766,3.88867 1.02913,1.20235 1.66797,2.31051 1.66797,3.5 0,1.00596 -0.32712,1.96078 -0.99024,2.65039 l -0.006,0.008 -0.008,0.008 c -0.27583,0.27576 -0.60568,0.47809 -0.95703,0.63867 0.61528,1.32994 0.99604,2.18754 1.39063,3.08399 0.8055,-0.32465 1.51027,-0.78138 2.12695,-1.38282 1.35201,-1.31905 2.02344,-3.00098 2.02344,-5.28711 0,-1.50682 -0.34529,-2.80627 -1.02735,-3.9707 v -0.008 c -0.67351,-1.16633 -2.03507,-2.66192 -4.08203,-4.37696 -0.39485,-0.31963 -0.9413,-0.76846 -1.64648,-1.34375 -1.37174,-1.07984 -2.42342,-2.07407 -3.16602,-3.02734 -0.74264,-0.95327 -1.21094,-1.88799 -1.21094,-2.88477 0,-0.98796 0.29149,-1.91766 0.91602,-2.5996 0.62502,-0.69827 1.55123,-1.0625 2.51758,-1.0625 1.07573,0 2.0993,0.49807 2.75195,1.35156 0.45275,0.57698 0.63141,1.46186 0.85742,2.30273 L 872,415.55078 c -0.99887,-2.08776 -1.91045,-4.00715 -2.50781,-5.33594 -1.02722,-0.60214 -2.24706,-0.91015 -3.74414,-0.91015 z m 22.4414,0.36915 c -0.83278,-10e-6 -1.73451,0.25303 -2.73242,0.82812 l -0.006,0.008 c -0.97205,0.5531 -1.95851,1.38195 -2.93945,2.52344 l -0.22461,0.26172 c 0.10229,0.25875 0.23858,0.56885 0.34766,0.83789 0.0849,-0.0638 0.16709,-0.13172 0.2539,-0.19141 0.70881,-0.49417 1.36292,-0.82617 2.12695,-0.82617 0.74986,0 1.54898,0.27141 1.98438,0.92969 0.4763,0.69135 0.51758,1.43905 0.51758,2.45117 v 8.58008 c 0.83127,1.76018 1.73534,3.65366 2.74219,5.73633 0.36846,0.76218 0.56431,1.19003 0.89648,1.88086 v -18.69336 c 0,-1.65135 -0.32655,-2.76294 -0.79687,-3.39453 -0.47033,-0.63153 -1.0716,-0.93164 -2.16993,-0.93164 z m 24.10157,0.40039 2.33007,12.5 c 0.93168,2.02788 1.94912,4.20086 3.22461,6.85156 0.18496,0.38437 0.27184,0.57977 0.44532,0.9414 -0.0657,-1.28312 -0.1338,-2.49696 -0.2129,-3.47656 v -0.0156 -0.008 c -0.0741,-1.16522 -0.18651,-2.21909 -0.33203,-3.16601 l -2.13281,-13.62695 z m -14.16602,0.71875 c -0.14094,0.11003 -0.28217,0.22175 -0.41406,0.34375 l -0.006,0.008 c -1.30277,1.18877 -1.94141,2.71475 -1.94141,4.8418 v 15.66406 c 0,2.37369 0.65065,4.11955 1.92578,5.44726 l 0.008,0.008 c 1.27846,1.30767 2.92156,1.95703 5.16796,1.95703 2.3573,0 4.04974,-0.6468 5.29883,-1.91211 0.48736,-0.49368 0.87944,-1.06067 1.17969,-1.70703 -0.45736,-1.25133 -0.95804,-2.54627 -1.52734,-3.89844 -0.43876,-1.04215 -0.91395,-2.11654 -1.48243,-3.37305 v 4.04688 c 0,0.99575 -0.31064,1.93482 -0.95898,2.61328 -0.63481,0.66225 -1.55618,0.99023 -2.51172,0.99023 -0.94174,0 -1.85058,-0.33536 -2.44922,-1.01953 -0.59626,-0.68126 -0.84179,-1.59382 -0.84179,-2.58398 v -16.46094 c 0,-0.46462 0.0964,-0.9212 0.27539,-1.33789 -0.69908,-1.46713 -0.85599,-1.81069 -1.72266,-3.62695 z m 24.89062,0.41992 -1.96289,12.52539 c -0.2242,1.36339 -0.40123,2.64183 -0.53125,3.83008 l 0.008,-0.0156 c -0.10923,1.165 -0.18032,2.27621 -0.19922,3.3457 -3.8e-4,0.0189 3e-4,0.0397 0,0.0586 l -1.74414,0.0332 c 1.00434,2.09919 1.90907,4.00701 2.55078,5.42188 l 1.79883,-11.9668 -0.008,0.0156 c 0.0892,-0.64372 0.18752,-1.58832 0.28125,-2.80468 v -0.008 -0.008 c 0.11188,-1.21149 0.20447,-2.54593 0.2793,-4.00781 l 2.00195,0.0156 c 0.0563,1.63023 0.11733,3.01322 0.19141,4.14844 0.0922,1.11081 0.20441,1.97795 0.32422,2.57617 v 0.008 l 2.46484,13.92187 h 3.24805 l 1.00391,-5.88281 c -0.46426,-1.17665 -1.04771,-2.54969 -1.72657,-4.08789 -0.0109,0.46517 -0.0371,0.91466 -0.0371,1.39258 v 1.21875 l -2,0.043 c -6.8e-4,-0.014 6.8e-4,-0.0279 0,-0.043 -0.0559,-1.20616 -0.16427,-2.4004 -0.31054,-3.58789 v -0.008 -0.008 c -0.13006,-1.20703 -0.29786,-2.40768 -0.50196,-3.5957 l -0.44531,-2.5918 c -0.53133,-1.1273 -1.05197,-2.23377 -1.66211,-3.51172 -1.11075,-2.32653 -2.15052,-4.54609 -3.02344,-6.42773 z m -57.55664,3.39258 c -0.53884,0 -0.78942,0.12291 -1.0332,0.39843 l -0.008,0.008 -0.006,0.008 c -0.24098,0.26196 -0.38477,0.61219 -0.38477,1.24609 0,0.32534 0.20006,0.90605 0.78907,1.66211 0.58896,0.75606 1.52884,1.663 2.82031,2.67969 l 0.008,0.008 0.008,0.006 c 0.71721,0.58511 1.27313,1.03963 1.66797,1.35938 h 0.008 l 0.008,0.008 c 2.14276,1.79527 3.64952,3.39458 4.52539,4.9082 0.80258,1.37023 1.14378,2.94904 1.20312,4.61328 v -9.5 c -0.61748,-1.31802 -1.25193,-2.66265 -1.96289,-4.13867 -0.0939,-0.19494 -0.13189,-0.28013 -0.22265,-0.46875 l -5.22657,1.24805 -0.16992,-1.0625 c -0.192,-1.18696 -0.52268,-1.98356 -0.84961,-2.39844 l -0.006,-0.008 v -0.008 c -0.3295,-0.43083 -0.61937,-0.56836 -1.16797,-0.56836 z m 19.55664,0.51171 c -0.067,0 -0.45053,0.0977 -0.98828,0.47266 -0.19924,0.13698 -0.39345,0.30732 -0.58593,0.49023 0.60637,1.42357 1.28559,2.96672 2.07812,4.70118 v -4.28125 c 0,-0.86442 -0.19593,-1.37858 -0.15625,-1.32227 l -0.0137,-0.0215 -0.008,-0.0156 c 0.0178,0.0265 0.0514,-0.0234 -0.32618,-0.0234 z m 16.55665,2.9336 v 14.16797 c 0,0.67196 0.15036,1.04427 0.34765,1.26953 0.19465,0.22261 0.41188,0.33398 0.94336,0.33398 0.55552,0 0.8305,-0.12498 1.06445,-0.36914 h 0.008 c 0.25496,-0.26555 0.39843,-0.60822 0.39843,-1.23437 v -8.35157 c -0.59415,-1.26507 -1.8728,-3.94514 -2.76171,-5.8164 z m -24.50782,8.31836 v 11.93164 h 3.69141 v -2.73242 c -0.77723,-2.3678 -1.98042,-5.37454 -3.69141,-9.19922 z m 47.45117,1.02929 -1.88281,12.50977 c 0.79109,2.0557 1.027,3.2576 1.11524,4.66992 0.16097,2.58055 -0.12777,4.40643 -1.38477,8.73047 -0.47059,1.61862 -0.77562,3.15038 -0.67773,3.40625 0.16649,0.43468 0.23695,0.43402 1.08398,-0.002 1.31142,-0.67472 6.74663,-6.23314 8.75586,-8.95508 2.64752,-3.58677 3.25308,-5.0067 3.20508,-7.51563 -0.0214,-1.12985 -0.22503,-2.36615 -0.65235,-3.89453 l -0.67578,3.95508 h -6.60546 z m -60.58789,0.20899 c 0.50444,1.06554 0.86807,1.8713 1.44141,3.06641 0.49365,1.029 0.93356,1.98569 1.41016,3.00195 0.1428,-0.0655 0.2689,-0.14694 0.38086,-0.25781 0.27753,-0.29133 0.41992,-0.64184 0.41992,-1.25586 -4e-5,-0.37822 -0.30899,-1.17285 -1.1875,-2.19922 -0.58924,-0.68843 -1.42627,-1.48365 -2.46485,-2.35547 z m 11.13868,4.51758 c -0.0615,2.57522 -0.8432,4.83346 -2.52539,6.47461 -0.78909,0.7696 -1.71177,1.35399 -2.73438,1.77148 0.80749,2.05802 0.87978,2.51198 0.86133,5.2793 -0.0155,2.20875 -0.18362,3.62487 -0.60742,5.13086 -0.32187,1.14406 -0.79699,2.83895 -1.05664,3.76758 -0.25852,0.9287 -0.3896,1.90333 -0.28907,2.16601 v 0.002 c 0.17254,0.44769 0.23547,0.44694 1.08008,-0.0254 1.35319,-0.7573 6.51575,-6.01798 8.48828,-8.65039 1.85326,-2.47309 3.18737,-4.88308 3.49805,-6.31836 0.0857,-0.39591 0.10647,-0.87059 0.0742,-1.41797 h -5.79297 -0.99609 z"
             style="fill:#6f42c1;fill-opacity:1;stroke-width:0.27733293"
             inkscape:connector-curvature="0" />
          <text
             xml:space="preserve"
             style="font-style:normal;font-weight:normal;font-size:15.35202885px;line-height:1.25;font-family:sans-serif;letter-spacing:0px;word-spacing:0px;fill:#444444;fill-opacity:1;stroke:none;stroke-width:0.52916664;stroke-linecap:butt;stroke-miterlimit:4;stroke-dasharray:none;stroke-opacity:1;paint-order:markers stroke fill"
             x="248.09993"
             y="254.48102"
             id="text1060"><tspan
               sodipodi:role="line"
               x="247.53108"
               y="254.48102"
               style="font-style:normal;font-variant:normal;font-weight:bold;font-stretch:normal;font-size:15.35202885px;font-family:'AlternateGothic2 BT';-inkscape-font-specification:'AlternateGothic2 BT Bold';text-align:end;letter-spacing:-0.56885421px;text-anchor:end;fill:#444444;fill-opacity:1;stroke:none;stroke-width:0.52916664;stroke-linecap:butt;stroke-miterlimit:4;stroke-dasharray:none;stroke-opacity:1;paint-order:markers stroke fill"
               id="tspan1058">show</tspan></text>
        </g>
      </g>
    </g>
  </g>
</svg>
